<svg width="24" height="24" viewBox="0 0 24 24" fill="none" xmlns="http://www.w3.org/2000/svg">
<rect width="24" height="24" rx="2" fill="#333333"/>
<path d="M18.9835 6.30957C19.3981 6.0463 19.9519 6.1674 20.1738 6.60556C20.7776 7.79779 21.1153 9.11096 21.1588 10.4538C21.2119 12.0938 20.8242 13.718 20.0362 15.1572C19.2481 16.5964 18.0885 17.798 16.6781 18.6366C15.2678 19.4752 13.6583 19.9203 12.0175 19.9254C10.3766 19.9305 8.76446 19.4955 7.34892 18.6657C5.93338 17.8358 4.76629 16.6415 3.96927 15.2073C3.17224 13.773 2.77445 12.1512 2.81734 10.5109C2.85247 9.16783 3.18199 7.85258 3.77835 6.65662C3.99753 6.21708 4.55059 6.09253 4.96686 6.35322C5.38312 6.6139 5.50382 7.16096 5.29495 7.60549C4.86165 8.52767 4.62218 9.53249 4.59537 10.5574C4.5608 11.8797 4.88147 13.1871 5.52398 14.3433C6.16649 15.4995 7.10732 16.4623 8.24844 17.1313C9.38956 17.8002 10.6892 18.1509 12.0119 18.1468C13.3347 18.1427 14.6321 17.7839 15.7691 17.1078C16.906 16.4318 17.8408 15.4632 18.4761 14.303C19.1114 13.1428 19.4239 11.8334 19.3811 10.5114C19.3479 9.48663 19.1022 8.48332 18.6632 7.56387C18.4515 7.12064 18.5688 6.57285 18.9835 6.30957Z" fill="#FF6347"/>
<path d="M17.109 13.5318C17.2182 13.5911 17.259 13.728 17.1956 13.8349C16.6721 14.7187 15.9315 15.4558 15.0426 15.9753C14.0888 16.5327 13.0006 16.8184 11.896 16.8014C10.7914 16.7844 9.71253 16.4654 8.77635 15.8788C7.90381 15.3322 7.18625 14.5726 6.6902 13.6732C6.63019 13.5644 6.67518 13.4289 6.78613 13.3729C6.89709 13.317 7.03197 13.3619 7.0923 13.4705C7.55117 14.2967 8.21231 14.9945 9.01524 15.4975C9.88181 16.0405 10.8805 16.3358 11.9029 16.3515C12.9254 16.3673 13.9327 16.1028 14.8155 15.5868C15.6336 15.1087 16.3159 14.4316 16.8 13.62C16.8636 13.5132 16.9998 13.4725 17.109 13.5318Z" fill="#FF6347"/>
</svg>
