<svg width="25" height="25" viewBox="0 0 25 25" fill="none" xmlns="http://www.w3.org/2000/svg">
<path d="M21.7438 6.36548C22.3014 6.01144 23.0462 6.17428 23.3446 6.76352C24.1566 8.36678 24.6107 10.1327 24.6692 11.9385C24.7406 14.1439 24.2193 16.3281 23.1595 18.2635C22.0997 20.1989 20.5403 21.8147 18.6437 22.9424C16.7471 24.0702 14.5828 24.6687 12.3762 24.6756C10.1697 24.6825 8.00169 24.0975 6.09812 22.9815C4.19455 21.8656 2.62509 20.2595 1.55328 18.3308C0.48147 16.402 -0.0534648 14.2211 0.00421617 12.0153C0.0514461 10.2092 0.494583 8.44046 1.29655 6.83217C1.59129 6.24109 2.33502 6.07361 2.89481 6.42417V6.42417C3.45459 6.77473 3.61689 7.51039 3.33601 8.10819C2.75333 9.34829 2.43129 10.6995 2.39525 12.0778C2.34875 13.856 2.77998 15.6141 3.64401 17.169C4.50803 18.7238 5.77323 20.0185 7.30777 20.9181C8.8423 21.8177 10.59 22.2893 12.3688 22.2838C14.1476 22.2782 15.8923 21.7957 17.4212 20.8866C18.9501 19.9775 20.2072 18.6749 21.0616 17.1147C21.9159 15.5545 22.3362 13.7938 22.2786 12.0159C22.234 10.6379 21.9035 9.28866 21.3131 8.05221C21.0285 7.45618 21.1862 6.71952 21.7438 6.36548V6.36548Z" fill="#FAF3E0"/>
<path d="M19.2229 16.0773C19.3697 16.1571 19.4246 16.3411 19.3394 16.4849C18.6354 17.6733 17.6395 18.6646 16.4441 19.3632C15.1614 20.1128 13.6981 20.497 12.2127 20.4742C10.7272 20.4513 9.2764 20.0223 8.01746 19.2335C6.84409 18.4984 5.87914 17.477 5.21207 16.2674C5.13137 16.1211 5.19187 15.9389 5.34108 15.8637V15.8637C5.49029 15.7885 5.67167 15.8488 5.7528 15.9949C6.36987 17.1059 7.25895 18.0443 8.3387 18.7208C9.50404 19.4508 10.847 19.848 12.222 19.8692C13.597 19.8903 14.9515 19.5347 16.1387 18.8408C17.2388 18.1979 18.1564 17.2873 18.8073 16.1958C18.8929 16.0523 19.0761 15.9976 19.2229 16.0773V16.0773Z" fill="#FAF3E0"/>
</svg>
