<svg width="166" height="55" viewBox="0 0 166 55" fill="none" xmlns="http://www.w3.org/2000/svg">
<path d="M79.8387 32.1181C79.8387 33.3831 80.2604 34.377 81.1037 35.0998C81.9471 35.7926 82.8356 36.139 83.7693 36.139C84.7331 36.139 85.6216 35.8679 86.4348 35.3257C87.2781 34.7535 87.9558 34.4674 88.4678 34.4674C89.3714 34.4674 90.4707 35.2655 91.7658 36.8618C92.4586 37.7353 92.8049 38.5183 92.8049 39.2111C92.8049 40.3556 91.9767 41.4248 90.3201 42.4188C88.6033 43.6235 86.495 44.2259 83.9951 44.2259C81.1941 44.2259 78.4984 43.2169 75.9082 41.1989C74.6733 40.2351 73.6643 38.9551 72.8812 37.3588C72.0982 35.7323 71.7066 33.9553 71.7066 32.0277C71.7066 30.07 72.0982 28.308 72.8812 26.7418C73.6643 25.1455 74.6733 23.8655 75.9082 22.9017C78.4081 20.9138 81.0736 19.9199 83.9048 19.9199C85.0493 19.9199 86.1637 20.0855 87.248 20.4169C88.3323 20.718 89.1304 21.0192 89.6424 21.3204L90.3653 21.7722C90.9074 22.1336 91.3291 22.4198 91.6303 22.6306C92.4134 23.233 92.8049 23.9257 92.8049 24.7088C92.8049 25.4618 92.4887 26.3202 91.8562 27.284C90.7719 28.9405 89.7328 29.7688 88.7389 29.7688C88.1666 29.7688 87.3534 29.4375 86.2992 28.7749C85.7571 28.2628 84.974 28.0068 83.95 28.0068C82.956 28.0068 82.0224 28.3683 81.1489 29.0911C80.2755 29.814 79.8387 30.823 79.8387 32.1181ZM106.618 20.2813C109.63 20.2813 112.13 21.4258 114.118 23.7149C116.135 26.0039 117.144 28.805 117.144 32.1181V40.0695C117.144 40.7622 117.114 41.2893 117.054 41.6507C117.024 41.982 116.888 42.3736 116.648 42.8254C116.256 43.6085 115.096 44 113.169 44C111.332 44 110.187 43.6085 109.735 42.8254C109.494 42.3736 109.344 41.967 109.283 41.6055C109.253 41.2441 109.238 40.702 109.238 39.9791V32.0729C109.238 30.838 108.892 29.8742 108.199 29.1815C107.506 28.4887 106.618 28.1424 105.534 28.1424C104.479 28.1424 103.546 28.4737 102.733 29.1363C101.919 29.7688 101.452 30.4916 101.332 31.3049V40.0695C101.332 40.7622 101.302 41.2893 101.242 41.6507C101.212 41.982 101.076 42.3736 100.835 42.8254C100.444 43.6085 99.2839 44 97.3563 44C95.4588 44 94.2992 43.5934 93.8776 42.7802C93.6667 42.3284 93.5312 41.9369 93.471 41.6055C93.4408 41.2742 93.4258 40.7472 93.4258 40.0243V13.0076C93.4258 12.3149 93.4408 11.8028 93.471 11.4715C93.5312 11.1101 93.6667 10.7186 93.8776 10.2969C94.2992 9.48367 95.4739 9.07707 97.4015 9.07707C99.299 9.07707 100.444 9.48367 100.835 10.2969C101.076 10.7487 101.212 11.1553 101.242 11.5167C101.302 11.848 101.332 12.36 101.332 13.0528V23.0372C102.838 21.1999 104.6 20.2813 106.618 20.2813ZM118.747 24.1667C118.747 23.4739 118.762 22.9619 118.792 22.6306C118.852 22.2692 118.988 21.8626 119.199 21.4108C119.62 20.6277 120.795 20.2361 122.723 20.2361C124.168 20.2361 125.192 20.4922 125.795 21.0042C126.307 21.4258 126.578 22.0734 126.608 22.9468C126.638 23.248 126.653 23.6848 126.653 24.257V40.0695C126.653 40.7622 126.623 41.2893 126.563 41.6507C126.533 41.982 126.397 42.3736 126.156 42.8254C125.765 43.6085 124.605 44 122.677 44C120.78 44 119.62 43.5934 119.199 42.7802C118.988 42.3284 118.852 41.9369 118.792 41.6055C118.762 41.2742 118.747 40.7472 118.747 40.0243V24.1667ZM126.156 15.8087C125.945 16.2303 125.554 16.5315 124.982 16.7122C124.409 16.8929 123.641 16.9833 122.677 16.9833C121.744 16.9833 120.991 16.8929 120.418 16.7122C119.846 16.5315 119.44 16.2153 119.199 15.7635C118.988 15.3117 118.852 14.9201 118.792 14.5888C118.762 14.2274 118.747 13.7003 118.747 13.0076C118.747 12.3149 118.762 11.8028 118.792 11.4715C118.852 11.1101 118.988 10.7186 119.199 10.2969C119.62 9.48367 120.795 9.07707 122.723 9.07707C124.62 9.07707 125.765 9.48367 126.156 10.2969C126.397 10.7487 126.533 11.1553 126.563 11.5167C126.623 11.848 126.653 12.36 126.653 13.0528C126.653 13.7455 126.623 14.2726 126.563 14.634C126.533 14.9653 126.397 15.3569 126.156 15.8087ZM136 23.3535C137.415 21.215 139.117 20.1458 141.105 20.1458C144.177 20.1458 146.466 21.456 147.972 24.0763C148.303 23.6245 148.695 23.1577 149.147 22.6758C149.629 22.1638 150.382 21.6216 151.406 21.0494C152.43 20.447 153.484 20.1458 154.568 20.1458C156.978 20.1458 158.996 21.0795 160.622 22.9468C162.248 24.7841 163.062 27.8412 163.062 32.1181V40.0243C163.062 40.717 163.032 41.2441 162.971 41.6055C162.941 41.9369 162.806 42.3284 162.565 42.7802C162.173 43.5934 161.014 44 159.086 44C157.188 44 156.029 43.5783 155.607 42.735C155.396 42.2832 155.261 41.8917 155.201 41.5604C155.17 41.1989 155.155 40.6719 155.155 39.9791V32.0729C155.155 29.4525 154.222 28.1424 152.354 28.1424C151.3 28.1424 150.577 28.4887 150.186 29.1815C149.824 29.8742 149.644 30.8531 149.644 32.1181V40.0243C149.644 40.7472 149.614 41.2742 149.553 41.6055C149.523 41.9369 149.388 42.3284 149.147 42.7802C148.725 43.5934 147.55 44 145.623 44C143.725 44 142.566 43.5783 142.144 42.735C141.933 42.2832 141.798 41.8917 141.737 41.5604C141.707 41.1989 141.692 40.6719 141.692 39.9791V32.0729C141.692 29.4525 140.759 28.1424 138.891 28.1424C137.084 28.1424 136.18 29.4525 136.18 32.0729V40.0695C136.18 40.7622 136.15 41.2893 136.09 41.6507C136.06 41.982 135.924 42.3736 135.684 42.8254C135.232 43.6085 134.057 44 132.16 44C130.262 44 129.103 43.5934 128.681 42.7802C128.47 42.3284 128.334 41.9369 128.274 41.6055C128.244 41.2742 128.229 40.7472 128.229 40.0243V24.1215C128.229 23.4288 128.244 22.9167 128.274 22.5854C128.334 22.224 128.485 21.8324 128.726 21.4108C129.178 20.5976 130.247 20.191 131.934 20.191C133.62 20.191 134.72 20.462 135.232 21.0042C135.744 21.5463 136 22.3294 136 23.3535Z" fill="#FF6347"/>
<path d="M25.3903 26.2449C27.1673 28.3532 28.0558 30.7175 28.0558 33.3379C27.9956 36.3498 26.9565 38.8798 24.9385 40.9279C22.9506 42.9458 20.5261 43.9548 17.6648 43.9548H5.78284C3.67451 43.9548 2.43964 43.3826 2.07821 42.238C1.89749 41.726 1.80714 40.9429 1.80714 39.8888V14.8147C1.80714 14.0919 1.8222 13.5648 1.85232 13.2335C1.91255 12.9022 2.06315 12.5106 2.3041 12.0588C2.72577 11.2456 3.9004 10.839 5.82802 10.839H17.213C19.9839 10.839 22.3031 11.8028 24.1705 13.7304C26.1282 15.6882 27.1071 18.0375 27.1071 20.7783C27.1071 22.7661 26.5348 24.5883 25.3903 26.2449ZM20.0592 32.8861C20.0592 32.1633 19.9689 31.591 19.7882 31.1693C19.6376 30.7477 19.3665 30.4465 18.9749 30.2658C18.3726 30.0248 17.5292 29.9043 16.445 29.9043C15.3607 29.9043 14.5475 29.6935 14.0053 29.2718C13.4632 28.8502 13.1921 27.9918 13.1921 26.6967C13.1921 25.3714 13.4632 24.498 14.0053 24.0763C14.5776 23.6546 15.5113 23.4438 16.8064 23.4438C18.0111 23.4438 18.734 23.1276 18.9749 22.4951C19.0653 22.1638 19.1105 21.6216 19.1105 20.8686C19.1105 20.1157 18.8545 19.5886 18.3424 19.2874C17.8605 18.9862 17.1226 18.8356 16.1287 18.8356H9.80372V35.9582H17.213C19.1105 35.9582 20.0592 34.9342 20.0592 32.8861Z" fill="#FF6347"/>
<path d="M65.7704 21.6244C66.6844 21.044 67.9054 21.3109 68.3946 22.2769C69.7257 24.9053 70.4702 27.8003 70.5661 30.7607C70.6832 34.3761 69.8285 37.9569 68.0911 41.1297C66.3538 44.3026 63.7973 46.9514 60.6881 48.8003C57.5789 50.6491 54.0307 51.6303 50.4133 51.6415C46.796 51.6528 43.2418 50.6938 40.1211 48.8643C37.0005 47.0349 34.4275 44.402 32.6704 41.24C30.9133 38.078 30.0364 34.5027 30.1309 30.8866C30.2084 27.9256 30.9348 25.0261 32.2496 22.3895C32.7327 21.4205 33.952 21.1459 34.8697 21.7206C35.7874 22.2953 36.0535 23.5013 35.593 24.4813C34.6378 26.5143 34.1098 28.7295 34.0507 30.9891C33.9745 33.9042 34.6815 36.7864 36.0979 39.3354C37.5144 41.8843 39.5885 44.0068 42.1042 45.4816C44.6199 46.9564 47.4851 47.7295 50.4011 47.7204C53.3172 47.7113 56.1775 46.9204 58.684 45.43C61.1904 43.9395 63.2513 41.8042 64.6519 39.2465C66.0524 36.6887 66.7414 33.8021 66.647 30.8876C66.5739 28.6284 66.0321 26.4166 65.0643 24.3896C64.5977 23.4124 64.8563 22.2048 65.7704 21.6244Z" fill="#333333"/>
<path d="M61.6376 37.5461C61.8783 37.6769 61.9683 37.9786 61.8286 38.2142C60.6745 40.1626 59.0418 41.7876 57.0821 42.9329C54.9794 44.1618 52.5804 44.7917 50.1452 44.7542C47.71 44.7167 45.3316 44.0133 43.2677 42.7203C41.3441 41.5151 39.7622 39.8406 38.6686 37.8577C38.5363 37.6179 38.6355 37.3191 38.8801 37.1958C39.1247 37.0725 39.4221 37.1715 39.5551 37.4109C40.5667 39.2323 42.0242 40.7707 43.7943 41.8797C45.7048 43.0766 47.9064 43.7277 50.1605 43.7624C52.4146 43.7971 54.6352 43.214 56.5815 42.0765C58.385 41.0225 59.8892 39.5298 60.9564 37.7404C61.0967 37.5051 61.3969 37.4154 61.6376 37.5461Z" fill="#333333"/>
</svg>
