<svg width="102" height="33" viewBox="0 0 102 33" fill="none" xmlns="http://www.w3.org/2000/svg">
<path d="M48.7007 19.7522C48.7007 20.5238 48.9579 21.1301 49.4724 21.571C49.9868 21.9936 50.5288 22.2049 51.0983 22.2049C51.6862 22.2049 52.2282 22.0395 52.7242 21.7088C53.2387 21.3597 53.652 21.1852 53.9644 21.1852C54.5155 21.1852 55.1861 21.6721 55.9761 22.6458C56.3987 23.1786 56.61 23.6563 56.61 24.0788C56.61 24.777 56.1047 25.4292 55.0943 26.0355C54.047 26.7703 52.761 27.1378 51.2361 27.1378C49.5275 27.1378 47.8832 26.5223 46.3032 25.2914C45.5499 24.7035 44.9344 23.9227 44.4567 22.9489C43.9791 21.9568 43.7402 20.8729 43.7402 19.697C43.7402 18.5029 43.9791 17.4281 44.4567 16.4727C44.9344 15.499 45.5499 14.7182 46.3032 14.1303C47.828 12.9177 49.454 12.3114 51.181 12.3114C51.8791 12.3114 52.5589 12.4125 53.2203 12.6146C53.8817 12.7983 54.3685 12.982 54.6809 13.1657L55.1218 13.4413C55.4525 13.6618 55.7097 13.8363 55.8934 13.9649C56.3711 14.3324 56.61 14.7549 56.61 15.2326C56.61 15.6919 56.417 16.2155 56.0312 16.8034C55.3698 17.8139 54.736 18.3191 54.1297 18.3191C53.7806 18.3191 53.2846 18.117 52.6416 17.7128C52.3109 17.4005 51.8332 17.2444 51.2085 17.2444C50.6022 17.2444 50.0327 17.4648 49.4999 17.9058C48.9671 18.3467 48.7007 18.9622 48.7007 19.7522ZM65.0357 12.5319C66.8729 12.5319 68.3978 13.23 69.6104 14.6263C70.8413 16.0226 71.4568 17.7312 71.4568 19.7522V24.6024C71.4568 25.025 71.4384 25.3465 71.4017 25.567C71.3833 25.7691 71.3006 26.0079 71.1536 26.2835C70.9148 26.7612 70.2075 27 69.0316 27C67.9109 27 67.2128 26.7612 66.9372 26.2835C66.7902 26.0079 66.6984 25.7599 66.6616 25.5394C66.6433 25.3189 66.6341 24.9882 66.6341 24.5473V19.7246C66.6341 18.9713 66.4228 18.3834 66.0002 17.9609C65.5777 17.5383 65.0357 17.327 64.3743 17.327C63.7313 17.327 63.1617 17.5291 62.6657 17.9333C62.1696 18.3191 61.8849 18.7601 61.8114 19.2561V24.6024C61.8114 25.025 61.793 25.3465 61.7563 25.567C61.7379 25.7691 61.6552 26.0079 61.5082 26.2835C61.2694 26.7612 60.5621 27 59.3862 27C58.2288 27 57.5215 26.752 57.2643 26.2559C57.1356 25.9803 57.053 25.7415 57.0162 25.5394C56.9979 25.3373 56.9887 25.0158 56.9887 24.5749V8.095C56.9887 7.67244 56.9979 7.36011 57.0162 7.15802C57.053 6.93755 57.1356 6.69871 57.2643 6.4415C57.5215 5.94545 58.238 5.69743 59.4138 5.69743C60.5712 5.69743 61.2694 5.94545 61.5082 6.4415C61.6552 6.71708 61.7379 6.96511 61.7563 7.18558C61.793 7.38767 61.8114 7.7 61.8114 8.12256V14.2129C62.73 13.0922 63.8048 12.5319 65.0357 12.5319ZM72.4342 14.9019C72.4342 14.4793 72.4434 14.167 72.4618 13.9649C72.4985 13.7445 72.5812 13.4964 72.7098 13.2208C72.967 12.7432 73.6835 12.5043 74.8594 12.5043C75.7412 12.5043 76.3659 12.6605 76.7333 12.9728C77.0457 13.23 77.211 13.625 77.2294 14.1578C77.2478 14.3415 77.2569 14.6079 77.2569 14.957V24.6024C77.2569 25.025 77.2386 25.3465 77.2018 25.567C77.1835 25.7691 77.1008 26.0079 76.9538 26.2835C76.715 26.7612 76.0076 27 74.8318 27C73.6744 27 72.967 26.752 72.7098 26.2559C72.5812 25.9803 72.4985 25.7415 72.4618 25.5394C72.4434 25.3373 72.4342 25.0158 72.4342 24.5749V14.9019ZM76.9538 9.80362C76.8252 10.0608 76.5864 10.2445 76.2373 10.3548C75.8882 10.465 75.4197 10.5201 74.8318 10.5201C74.2623 10.5201 73.803 10.465 73.4539 10.3548C73.1048 10.2445 72.8568 10.0516 72.7098 9.77606C72.5812 9.50047 72.4985 9.26163 72.4618 9.05954C72.4434 8.83907 72.4342 8.51756 72.4342 8.095C72.4342 7.67244 72.4434 7.36011 72.4618 7.15802C72.4985 6.93755 72.5812 6.69871 72.7098 6.4415C72.967 5.94545 73.6835 5.69743 74.8594 5.69743C76.0168 5.69743 76.715 5.94545 76.9538 6.4415C77.1008 6.71708 77.1835 6.96511 77.2018 7.18558C77.2386 7.38767 77.2569 7.7 77.2569 8.12256C77.2569 8.54512 77.2386 8.86663 77.2018 9.0871C77.1835 9.28919 77.1008 9.52803 76.9538 9.80362ZM82.9583 14.4059C83.8218 13.1014 84.8598 12.4492 86.0724 12.4492C87.9463 12.4492 89.3426 13.2484 90.2612 14.8468C90.4633 14.5712 90.7022 14.2864 90.9778 13.9925C91.2717 13.6802 91.731 13.3495 92.3557 13.0004C92.9803 12.6329 93.6233 12.4492 94.2847 12.4492C95.7545 12.4492 96.9855 13.0188 97.9776 14.1578C98.9697 15.2785 99.4657 17.1433 99.4657 19.7522V24.5749C99.4657 24.9974 99.4473 25.3189 99.4106 25.5394C99.3922 25.7415 99.3095 25.9803 99.1626 26.2559C98.9237 26.752 98.2164 27 97.0406 27C95.8831 27 95.1758 26.7428 94.9186 26.2284C94.79 25.9528 94.7073 25.7139 94.6706 25.5119C94.6522 25.2914 94.643 24.9699 94.643 24.5473V19.7246C94.643 18.1262 94.0735 17.327 92.9344 17.327C92.2914 17.327 91.8504 17.5383 91.6116 17.9609C91.3911 18.3834 91.2809 18.9805 91.2809 19.7522V24.5749C91.2809 25.0158 91.2625 25.3373 91.2258 25.5394C91.2074 25.7415 91.1247 25.9803 90.9778 26.2559C90.7205 26.752 90.004 27 88.8282 27C87.6708 27 86.9634 26.7428 86.7062 26.2284C86.5776 25.9528 86.4949 25.7139 86.4582 25.5119C86.4398 25.2914 86.4306 24.9699 86.4306 24.5473V19.7246C86.4306 18.1262 85.8611 17.327 84.722 17.327C83.6197 17.327 83.0685 18.1262 83.0685 19.7246V24.6024C83.0685 25.025 83.0501 25.3465 83.0134 25.567C82.995 25.7691 82.9124 26.0079 82.7654 26.2835C82.4898 26.7612 81.7733 27 80.6158 27C79.4584 27 78.751 26.752 78.4938 26.2559C78.3652 25.9803 78.2826 25.7415 78.2458 25.5394C78.2274 25.3373 78.2183 25.0158 78.2183 24.5749V14.8743C78.2183 14.4518 78.2274 14.1395 78.2458 13.9374C78.2826 13.7169 78.3744 13.4781 78.5214 13.2208C78.797 12.7248 79.4492 12.4768 80.478 12.4768C81.5069 12.4768 82.1775 12.6421 82.4898 12.9728C82.8021 13.3035 82.9583 13.7812 82.9583 14.4059Z" fill="#FF6347"/>
<path d="M15.4878 16.1696C16.5717 17.4556 17.1137 18.8979 17.1137 20.4962C17.077 22.3335 16.4431 23.8767 15.2122 25.126C13.9996 26.357 12.5207 26.9724 10.7753 26.9724H3.52746C2.24141 26.9724 1.48815 26.6234 1.26768 25.9252C1.15745 25.6129 1.10233 25.1352 1.10233 24.4922V9.19733C1.10233 8.7564 1.11152 8.43489 1.12989 8.23279C1.16664 8.0307 1.2585 7.79186 1.40547 7.51628C1.66268 7.02023 2.3792 6.7722 3.55502 6.7722H10.4997C12.19 6.7722 13.6046 7.36011 14.7437 8.53593C15.9379 9.73013 16.535 11.1632 16.535 12.835C16.535 14.0476 16.1859 15.1591 15.4878 16.1696ZM12.2359 20.2207C12.2359 19.7797 12.1808 19.4307 12.0705 19.1734C11.9787 18.9162 11.8133 18.7325 11.5745 18.6223C11.207 18.4753 10.6926 18.4018 10.0312 18.4018C9.36982 18.4018 8.87378 18.2732 8.54308 18.016C8.21238 17.7588 8.04703 17.2352 8.04703 16.4452C8.04703 15.6368 8.21238 15.104 8.54308 14.8468C8.89215 14.5896 9.46169 14.461 10.2517 14.461C10.9866 14.461 11.4275 14.2681 11.5745 13.8822C11.6296 13.6802 11.6572 13.3495 11.6572 12.8901C11.6572 12.4308 11.501 12.1093 11.1887 11.9256C10.8947 11.7419 10.4446 11.65 9.83832 11.65H5.98015V22.0946H10.4997C11.6572 22.0946 12.2359 21.47 12.2359 20.2207Z" fill="#FF6347"/>
<path d="M40.1193 13.1907C40.6769 12.8366 41.4217 12.9995 41.7201 13.5887C42.5321 15.192 42.9862 16.9579 43.0447 18.7637C43.1161 20.9691 42.5948 23.1533 41.535 25.0887C40.4752 27.0241 38.9158 28.6399 37.0192 29.7676C35.1226 30.8954 32.9583 31.4939 30.7517 31.5008C28.5452 31.5077 26.3772 30.9226 24.4736 29.8067C22.57 28.6908 21.0006 27.0847 19.9288 25.156C18.857 23.2272 18.322 21.0463 18.3797 18.8405C18.4269 17.0344 18.8701 15.2657 19.672 13.6574C19.9668 13.0663 20.7105 12.8988 21.2703 13.2494C21.8301 13.5999 21.9924 14.3356 21.7115 14.9334C21.1288 16.1735 20.8068 17.5247 20.7707 18.903C20.7242 20.6812 21.1555 22.4393 22.0195 23.9942C22.8835 25.549 24.1487 26.8437 25.6833 27.7433C27.2178 28.6429 28.9655 29.1145 30.7443 29.109C32.5231 29.1034 34.2678 28.6209 35.7967 27.7118C37.3256 26.8027 38.5827 25.5001 39.4371 23.9399C40.2914 22.3797 40.7117 20.619 40.6541 18.8411C40.6095 17.4631 40.279 16.1139 39.6886 14.8774C39.404 14.2814 39.5617 13.5447 40.1193 13.1907Z" fill="#FAF3E0"/>
<path d="M37.5984 22.9025C37.7452 22.9823 37.8001 23.1663 37.7149 23.3101C37.0109 24.4985 36.015 25.4898 34.8195 26.1884C33.5369 26.938 32.0736 27.3222 30.5881 27.2994C29.1027 27.2765 27.6519 26.8474 26.3929 26.0587C25.2196 25.3236 24.2546 24.3022 23.5876 23.0926C23.5069 22.9463 23.5674 22.7641 23.7166 22.6889C23.8658 22.6137 24.0472 22.674 24.1283 22.8201C24.7454 23.9311 25.6344 24.8695 26.7142 25.546C27.8795 26.276 29.2225 26.6732 30.5975 26.6944C31.9724 26.7155 33.327 26.3599 34.5142 25.666C35.6143 25.0231 36.5318 24.1125 37.1828 23.021C37.2684 22.8775 37.4516 22.8228 37.5984 22.9025Z" fill="#FAF3E0"/>
</svg>
